<svg xmlns="http://www.w3.org/2000/svg" xmlns:xlink="http://www.w3.org/1999/xlink" width="1080" zoomAndPan="magnify" viewBox="0 0 810 809.999993" height="1080" preserveAspectRatio="xMidYMid meet" version="1.0"><defs><filter x="0%" y="0%" width="100%" height="100%" id="97afb662e7"><feColorMatrix values="0 0 0 0 1 0 0 0 0 1 0 0 0 0 1 0 0 0 1 0" color-interpolation-filters="sRGB"/></filter><clipPath id="0955d802ea"><path d="M 26 99 L 786.804688 99 L 786.804688 620 L 26 620 Z M 26 99 " clip-rule="nonzero"/></clipPath><clipPath id="92c3caa8c4"><path d="M 26.320312 100.398438 C 20.226562 119.863281 730.851562 607.910156 745.054688 616.222656 C 759.257812 624.535156 777.613281 616.222656 783.640625 599.59375 C 789.738281 580.199219 783.640625 555.191406 771.519531 546.878906 C 757.246094 538.5625 34.425781 81.070312 26.320312 100.398438 Z M 26.320312 100.398438 " clip-rule="nonzero"/></clipPath><mask id="79fe283e05"><g filter="url(#97afb662e7)"><rect x="-81" width="972" fill="#000000" y="-80.999999" height="971.999992" fill-opacity="0.5723"/></g></mask><clipPath id="fe57c247a0"><path d="M 0 0 L 760.804688 0 L 760.804688 521 L 0 521 Z M 0 0 " clip-rule="nonzero"/></clipPath><clipPath id="0c8c345ca5"><path d="M 0.320312 1.398438 C -5.773438 20.863281 704.851562 508.910156 719.054688 517.222656 C 733.257812 525.535156 751.613281 517.222656 757.640625 500.59375 C 763.738281 481.199219 757.640625 456.191406 745.519531 447.878906 C 731.246094 439.5625 8.425781 -17.929688 0.320312 1.398438 Z M 0.320312 1.398438 " clip-rule="nonzero"/></clipPath><clipPath id="9e2c6d0ea9"><rect x="0" width="761" y="0" height="521"/></clipPath></defs><g clip-path="url(#0955d802ea)"><g clip-path="url(#92c3caa8c4)"><g mask="url(#79fe283e05)"><g transform="matrix(1, 0, 0, 1, 26, 99)"><g clip-path="url(#9e2c6d0ea9)"><g clip-path="url(#fe57c247a0)"><g clip-path="url(#0c8c345ca5)"><rect x="-204.2" width="1166.4" fill="#ffffff" height="1166.39999" y="-277.199998" fill-opacity="1"/></g></g></g></g></g></g></g></svg>