<svg xmlns="http://www.w3.org/2000/svg" xmlns:xlink="http://www.w3.org/1999/xlink" width="1366" zoomAndPan="magnify" viewBox="0 0 1024.5 576" height="768" preserveAspectRatio="xMidYMid meet" version="1.0"><defs><clipPath id="f7b3387301"><path d="M 0 454.046875 L 1024 454.046875 L 1024 575.859375 L 0 575.859375 Z M 0 454.046875 " clip-rule="nonzero"/></clipPath></defs><g clip-path="url(#f7b3387301)"><path fill="#01111c" d="M 724.976562 454.050781 C 686.359375 482.113281 648.921875 497.90625 648.921875 497.90625 C 648.921875 497.90625 575.488281 467.355469 568.167969 467.355469 C 567.941406 467.355469 567.777344 467.378906 567.6875 467.441406 C 548.628906 479.441406 382.023438 517.414062 344.945312 517.414062 C 344.378906 517.414062 343.839844 517.40625 343.328125 517.390625 C 309.796875 516.183594 268.542969 500.3125 264.632812 500.3125 C 260.816406 500.3125 202.839844 538.15625 129.238281 539.363281 C 127.84375 539.382812 126.457031 539.394531 125.074219 539.394531 C 52.214844 539.394531 -6.15625 508.890625 -6.15625 508.890625 L -8.699219 583.726562 L 1024.207031 583.726562 L 1024.207031 523.484375 C 1011.863281 525.046875 998.992188 525.726562 985.996094 525.726562 C 908.015625 525.726562 825.570312 501.511719 825.570312 501.511719 C 825.570312 501.511719 757.234375 478.421875 724.976562 454.050781 Z M 724.976562 454.050781 " fill-opacity="1" fill-rule="nonzero"/></g></svg>