<svg xmlns="http://www.w3.org/2000/svg" xmlns:xlink="http://www.w3.org/1999/xlink" width="500" zoomAndPan="magnify" viewBox="0 0 375 374.999991" height="500" preserveAspectRatio="xMidYMid meet" version="1.0"><defs><filter x="0%" y="0%" width="100%" height="100%" id="fcf2cc3eec"><feColorMatrix values="0 0 0 0 1 0 0 0 0 1 0 0 0 0 1 0 0 0 1 0" color-interpolation-filters="sRGB"/></filter><clipPath id="cc10148f1b"><path d="M 5 47 L 372.632812 47 L 372.632812 329.792969 L 5 329.792969 Z M 5 47 " clip-rule="nonzero"/></clipPath><clipPath id="f6fe4880f8"><path d="M 372.054688 48.023438 C 375.011719 58.570312 31.699219 323.058594 24.863281 327.542969 C 18 332.054688 9.152344 327.542969 6.21875 318.550781 C 3.285156 308.027344 6.21875 294.472656 12.085938 289.964844 C 18.949219 285.480469 368.125 37.546875 372.054688 48.023438 Z M 372.054688 48.023438 " clip-rule="nonzero"/></clipPath><mask id="a9f3eee09e"><g filter="url(#fcf2cc3eec)"><rect x="-37.5" width="450" fill="#000000" y="-37.499999" height="449.999989" fill-opacity="0.434"/></g></mask><clipPath id="b5ff90716e"><path d="M 0 0 L 367.632812 0 L 367.632812 282.792969 L 0 282.792969 Z M 0 0 " clip-rule="nonzero"/></clipPath><clipPath id="2734da0003"><path d="M 367.054688 1.023438 C 370.011719 11.570312 26.699219 276.058594 19.863281 280.542969 C 13 285.054688 4.152344 280.542969 1.21875 271.550781 C -1.714844 261.027344 1.21875 247.472656 7.085938 242.964844 C 13.949219 238.480469 363.125 -9.453125 367.054688 1.023438 Z M 367.054688 1.023438 " clip-rule="nonzero"/></clipPath><clipPath id="b81f162ca0"><rect x="0" width="368" y="0" height="283"/></clipPath></defs><g clip-path="url(#cc10148f1b)"><g clip-path="url(#f6fe4880f8)"><g mask="url(#a9f3eee09e)"><g transform="matrix(1, 0, 0, 1, 5, 47)"><g clip-path="url(#b81f162ca0)"><g clip-path="url(#b5ff90716e)"><g clip-path="url(#2734da0003)"><rect x="-87.5" width="540" fill="#ffffff" height="539.999987" y="-129.499998" fill-opacity="1"/></g></g></g></g></g></g></g></svg>