<svg xmlns="http://www.w3.org/2000/svg" xmlns:xlink="http://www.w3.org/1999/xlink" width="500" zoomAndPan="magnify" viewBox="0 0 375 374.999991" height="500" preserveAspectRatio="xMidYMid meet" version="1.0"><defs><clipPath id="5fe872bef4"><path d="M 202 63.289062 L 210 63.289062 L 210 337.789062 L 202 337.789062 Z M 202 63.289062 " clip-rule="nonzero"/></clipPath><clipPath id="61f8ed4ace"><path d="M 63.273438 190 L 337.773438 190 L 337.773438 199 L 63.273438 199 Z M 63.273438 190 " clip-rule="nonzero"/></clipPath></defs><g clip-path="url(#5fe872bef4)"><path fill="#ffffff" d="M 207.402344 63.289062 L 202.996094 193.65625 L 208.914062 337.789062 L 209.910156 192.660156 Z M 207.402344 63.289062 " fill-opacity="0.44" fill-rule="nonzero"/></g><g clip-path="url(#61f8ed4ace)"><path fill="#ffffff" d="M 207.402344 190.699219 L 63.308594 197.097656 L 208.433594 198.09375 L 337.765625 195.136719 Z M 207.402344 190.699219 " fill-opacity="0.44" fill-rule="nonzero"/></g><path fill="#ffffff" d="M 276.765625 129.695312 L 204.476562 191.664062 L 129.199219 266.460938 L 208.398438 195.136719 Z M 276.765625 129.695312 " fill-opacity="0.44" fill-rule="nonzero"/><path fill="#ffffff" d="M 133.152344 117.890625 L 204.476562 196.582031 L 269.882812 265.464844 L 207.917969 192.660156 Z M 133.152344 117.890625 " fill-opacity="0.44" fill-rule="nonzero"/></svg>